/* XPM */
static char *arrow[] = {
/* columns rows colors chars-per-pixel */
"8 8 2 1 ",
"  c None",
". c #248CE2",
/* pixels */
"        ",
"        ",
"        ",
"   ...  ",
"  .. .. ",
"   ...  ",
"        ",
"        "
};
